<mxfile host="65bd71144e">
    <diagram id="O4jmj0EobwWpu-qgP68z" name="Page-1">
        <mxGraphModel dx="1113" dy="506" grid="1" gridSize="10" guides="1" tooltips="1" connect="1" arrows="1" fold="1" page="1" pageScale="1" pageWidth="850" pageHeight="1100" math="0" shadow="0">
            <root>
                <mxCell id="0"/>
                <mxCell id="1" parent="0"/>
                <mxCell id="63" value="" style="edgeStyle=none;html=1;" edge="1" parent="1" source="51" target="58">
                    <mxGeometry relative="1" as="geometry"/>
                </mxCell>
                <mxCell id="51" value="START" style="rounded=1;whiteSpace=wrap;html=1;arcSize=50;fillColor=#f0a30a;fontColor=#000000;strokeColor=#BD7000;" vertex="1" parent="1">
                    <mxGeometry x="190" y="60" width="120" height="40" as="geometry"/>
                </mxCell>
                <mxCell id="52" value="END" style="rounded=1;whiteSpace=wrap;html=1;arcSize=50;fillColor=#f0a30a;fontColor=#000000;strokeColor=#BD7000;" vertex="1" parent="1">
                    <mxGeometry x="190" y="380" width="120" height="40" as="geometry"/>
                </mxCell>
                <mxCell id="62" value="" style="edgeStyle=none;html=1;" edge="1" parent="1" source="58" target="59">
                    <mxGeometry relative="1" as="geometry"/>
                </mxCell>
                <mxCell id="58" value="Save Log" style="rounded=0;whiteSpace=wrap;html=1;fillColor=#0F9FFF;fontColor=#ffffff;strokeColor=#006EAF;" vertex="1" parent="1">
                    <mxGeometry x="190" y="160" width="120" height="50" as="geometry"/>
                </mxCell>
                <mxCell id="60" value="YES" style="edgeStyle=none;html=1;" edge="1" parent="1" source="59" target="52">
                    <mxGeometry relative="1" as="geometry"/>
                </mxCell>
                <mxCell id="65" value="NO" style="edgeStyle=none;html=1;" edge="1" parent="1" source="59" target="64">
                    <mxGeometry relative="1" as="geometry"/>
                </mxCell>
                <mxCell id="59" value="Succeeded" style="rhombus;whiteSpace=wrap;html=1;fillColor=#0F9FFF;" vertex="1" parent="1">
                    <mxGeometry x="190" y="250" width="120" height="80" as="geometry"/>
                </mxCell>
                <mxCell id="66" style="edgeStyle=none;html=1;entryX=1;entryY=0.5;entryDx=0;entryDy=0;" edge="1" parent="1" source="64" target="52">
                    <mxGeometry relative="1" as="geometry">
                        <Array as="points">
                            <mxPoint x="425" y="400"/>
                        </Array>
                    </mxGeometry>
                </mxCell>
                <mxCell id="67" value="NO" style="edgeLabel;html=1;align=center;verticalAlign=middle;resizable=0;points=[];" vertex="1" connectable="0" parent="66">
                    <mxGeometry x="-0.0514" y="-2" relative="1" as="geometry">
                        <mxPoint x="18" y="-48" as="offset"/>
                    </mxGeometry>
                </mxCell>
                <mxCell id="69" value="YES" style="edgeStyle=none;html=1;" edge="1" parent="1" source="64" target="68">
                    <mxGeometry relative="1" as="geometry"/>
                </mxCell>
                <mxCell id="64" value="Has fallback" style="rhombus;whiteSpace=wrap;html=1;fillColor=#0F9FFF;" vertex="1" parent="1">
                    <mxGeometry x="365" y="250" width="120" height="80" as="geometry"/>
                </mxCell>
                <mxCell id="70" style="edgeStyle=none;html=1;entryX=1;entryY=0.5;entryDx=0;entryDy=0;" edge="1" parent="1" source="68" target="51">
                    <mxGeometry relative="1" as="geometry">
                        <Array as="points">
                            <mxPoint x="425" y="80"/>
                        </Array>
                    </mxGeometry>
                </mxCell>
                <mxCell id="68" value="Select fallback&lt;br&gt;manager" style="whiteSpace=wrap;html=1;fillColor=#0F9FFF;" vertex="1" parent="1">
                    <mxGeometry x="365" y="160" width="120" height="50" as="geometry"/>
                </mxCell>
                <mxCell id="72" value="Logging layer" style="text;html=1;align=center;verticalAlign=middle;resizable=0;points=[];autosize=1;strokeColor=none;fillColor=none;" vertex="1" parent="1">
                    <mxGeometry x="30" y="10" width="90" height="20" as="geometry"/>
                </mxCell>
            </root>
        </mxGraphModel>
    </diagram>
</mxfile>